<?xml version="1.0" encoding="iso-8859-1"?>
<!-- Generator: Adobe Illustrator 22.0.0, SVG Export Plug-In . SVG Version: 6.00 Build 0)  -->
<svg version="1.1" id="&#x56FE;&#x5C42;_1" xmlns="http://www.w3.org/2000/svg" xmlns:xlink="http://www.w3.org/1999/xlink" x="0px"
	 y="0px" xml:space="preserve">
<path style="fill:none;stroke:currentColor;stroke-width:1.627;stroke-linejoin:round;stroke-miterlimit:10;" d="M117.701,112.07h-16.492
	c-1.781,0-3.224-1.634-3.224-3.649V89.57h11.47h11.471v18.851C120.926,110.436,119.482,112.07,117.701,112.07z"/>
<path style="fill:none;stroke:currentColor;stroke-width:1.5966;stroke-linejoin:round;stroke-miterlimit:10;" d="M122.455,89.153v0.417
	h-26v-0.417c0-1.842,1.369-3.333,3.059-3.333h19.882c1.499,0,2.745,1.175,3.005,2.733C122.44,88.745,122.455,88.945,122.455,89.153z
	"/>
<path style="fill:none;stroke:currentColor;stroke-width:1.5966;stroke-linecap:round;stroke-linejoin:round;stroke-miterlimit:10;" d="
	M106.396,83.737L106.396,83.737c0-0.92,0.685-1.667,1.529-1.667h3.059c0.845,0,1.529,0.746,1.529,1.667l0,0"/>
<line style="fill:none;stroke:currentColor;stroke-width:1.5966;stroke-linecap:round;stroke-linejoin:round;stroke-miterlimit:10;" x1="109.455" y1="94.57" x2="109.455" y2="106.237"/>
<line style="fill:none;stroke:currentColor;stroke-width:1.5966;stroke-linecap:round;stroke-linejoin:round;stroke-miterlimit:10;" x1="103.337" y1="94.57" x2="103.337" y2="106.237"/>
<line style="fill:none;stroke:currentColor;stroke-width:1.5966;stroke-linecap:round;stroke-linejoin:round;stroke-miterlimit:10;" x1="115.573" y1="94.57" x2="115.573" y2="106.237"/>
</svg>
