<?xml version="1.0" encoding="iso-8859-1"?>
<!-- Generator: Adobe Illustrator 22.0.0, SVG Export Plug-In . SVG Version: 6.00 Build 0)  -->
<svg version="1.1" id="&#x56FE;&#x5C42;_1" xmlns="http://www.w3.org/2000/svg" xmlns:xlink="http://www.w3.org/1999/xlink" x="0px"
	 y="0px" viewBox="0 0 841.89 595.276" style="enable-background:new 0 0 841.89 595.276;" xml:space="preserve">
<path style="fill:none;stroke:#363255;stroke-width:1.777;stroke-linecap:round;stroke-linejoin:round;stroke-miterlimit:10;" d="
	M101.331,96.293v26.842l-12-7.105l-12,7.105V96.293c0-1.737,1.8-3.158,4-3.158h16c1.85,0,3.43,1.011,3.87,2.368
	c0.03,0.079,0.05,0.166,0.07,0.245C101.311,95.922,101.331,96.103,101.331,96.293z"/>
<g style="enable-background:new    ;">
	<path style="fill:none;stroke:#363255;stroke-width:0.9504;stroke-linecap:round;stroke-linejoin:round;stroke-miterlimit:10;" d="
		M95.506,109.367c0.023,0.134,0.026,0.267,0.009,0.398c-0.017,0.129-0.125,0.195-0.323,0.195c-0.117,0-0.207-0.034-0.271-0.102
		c-0.063-0.067-0.113-0.186-0.148-0.357c-0.431-2.217-0.757-3.896-0.979-5.036c-0.221-1.14-0.344-1.768-0.367-1.885
		c-0.023-0.117-0.047-0.231-0.069-0.343c-0.023-0.112-0.047-0.218-0.069-0.317c-0.035-0.143-0.076-0.271-0.123-0.383
		s-0.094-0.193-0.14-0.243c-0.047-0.049-0.097-0.058-0.148-0.027c-0.053,0.032-0.103,0.119-0.149,0.263l-3.005,7.998
		c-0.07,0.171-0.131,0.285-0.184,0.344s-0.12,0.088-0.201,0.088c-0.07,0-0.131-0.025-0.184-0.074
		c-0.052-0.05-0.113-0.169-0.184-0.357c-0.524-1.355-1.04-2.686-1.546-3.992c-0.506-1.306-1.005-2.637-1.495-3.993
		c-0.082-0.215-0.166-0.323-0.253-0.323c-0.087,0-0.154,0.108-0.201,0.323l-1.573,7.958c-0.023,0.145-0.061,0.256-0.114,0.338
		c-0.052,0.08-0.166,0.121-0.341,0.121c-0.256,0-0.355-0.148-0.297-0.445l1.643-8.254c0.081-0.467,0.361-0.7,0.839-0.7
		c0.478,0,0.792,0.207,0.944,0.62l2.796,7.446l2.726-7.446c0.151-0.413,0.461-0.62,0.927-0.62c0.489,0,0.774,0.233,0.856,0.7
		L95.506,109.367z"/>
</g>
</svg>
