<?xml version="1.0" encoding="utf-8"?>
<!-- Generator: Adobe Illustrator 22.0.0, SVG Export Plug-In . SVG Version: 6.00 Build 0)  -->
<svg version="1.1" id="图层_1" xmlns="http://www.w3.org/2000/svg" xmlns:xlink="http://www.w3.org/1999/xlink" x="0px" y="0px"
	 viewBox="0 0 26 32" style="enable-background:new 0 0 26 32;" xml:space="preserve">
<style type="text/css">
	.st0{fill:currentColor;}
	.st1{fill:#FFFFFF;}
</style>
<title>icon/hightlights/标记金句</title>
<desc>Created with Sketch.</desc>
<g id="icon_x2F_hightlights_x2F_标记金句">
	<g id="Fill-1">
		<path class="st0" d="M24.9,4v26.8l-12-7.1l-12,7.1V4c0-1.7,1.8-3.2,4-3.2h16c1.9,0,3.4,1,3.9,2.4c0,0.1,0.1,0.2,0.1,0.2
			C24.9,3.7,24.9,3.9,24.9,4"/>
	</g>
	<g id="Stroke-3">
		<path class="st0" d="M24.9,31.8c-0.2,0-0.3,0-0.5-0.1l-10.9-6.5c-0.4-0.2-0.9-0.2-1.2,0L1.3,31.7c-0.3,0.2-0.6,0.2-0.9,0
			C0.2,31.5,0,31.2,0,30.9V4c0-2.2,2.2-4,4.9-4h16c2.2,0,4.1,1.2,4.7,3c0,0.1,0.1,0.2,0.1,0.3c0.1,0.3,0.1,0.5,0.1,0.8v26.8
			c0,0.3-0.2,0.6-0.4,0.8C25.2,31.7,25,31.8,24.9,31.8z M12.9,22.9c0.2,0,0.3,0,0.5,0.1L24,29.3V4c0-0.1,0-0.2,0-0.3
			c0,0,0-0.1,0-0.1c-0.3-1.1-1.6-1.8-3-1.8h-16c-1.7,0-3.1,1-3.1,2.3v25.3L12.4,23C12.6,22.9,12.7,22.9,12.9,22.9z"/>
	</g>
	<g id="Stroke-5">
		<path class="st1" d="M7,18.2c-0.3,0-0.5-0.1-0.6-0.3c-0.2-0.2-0.2-0.4-0.1-0.7l1.6-8.3C8,8.2,8.5,7.8,9.2,7.8
			c0.7,0,1.2,0.3,1.4,0.9l2.3,6.2l2.3-6.2c0.2-0.6,0.7-0.9,1.4-0.9c0.7,0,1.2,0.4,1.3,1.1l1.6,8.1c0,0,0,0,0,0c0,0.2,0,0.4,0,0.5
			c0,0.3-0.3,0.6-0.8,0.6c-0.3,0-0.5-0.1-0.6-0.3c-0.1-0.1-0.2-0.3-0.3-0.6l-1.1-5.5c-0.2-0.8-0.3-1.3-0.3-1.4l-0.1-0.3l-2.7,7.3
			c-0.1,0.2-0.2,0.4-0.3,0.5c-0.3,0.3-0.8,0.3-1.1,0.1c-0.1-0.1-0.2-0.3-0.3-0.5l-1.5-4c-0.4-1.1-0.8-2.1-1.2-3.2l-1.4,7.1
			c0,0.2-0.1,0.4-0.2,0.5C7.6,18,7.4,18.2,7,18.2z M12.9,16.9L12.9,16.9L12.9,16.9C12.9,16.9,12.9,16.9,12.9,16.9
			C12.9,16.9,12.9,16.9,12.9,16.9z"/>
	</g>
</g>
</svg>
