<?xml version="1.0" encoding="iso-8859-1"?>
<!-- Generator: Adobe Illustrator 22.0.0, SVG Export Plug-In . SVG Version: 6.00 Build 0)  -->
<svg version="1.1" id="&#x56FE;&#x5C42;_1" xmlns="http://www.w3.org/2000/svg" xmlns:xlink="http://www.w3.org/1999/xlink" x="0px"
	 y="0px" style="enable-background:new 0 0 841.89 595.276;" xml:space="preserve">
<line style="fill:none;stroke:currentColor;stroke-width:1.7794;stroke-linecap:round;stroke-linejoin:round;stroke-miterlimit:10;" x1="47.246" y1="68.946" x2="61.456" y2="68.946"/>
<line style="fill:none;stroke:currentColor;stroke-width:1.7794;stroke-linecap:round;stroke-linejoin:round;stroke-miterlimit:10;" x1="47.246" y1="75.957" x2="61.456" y2="75.957"/>
<g>
	
		<line style="fill:none;stroke:currentColor;stroke-width:1.779;stroke-linecap:round;stroke-linejoin:round;stroke-miterlimit:10;" x1="51.246" y1="60.727" x2="54.352" y2="57.621"/>
	
		<line style="fill:none;stroke:currentColor;stroke-width:1.779;stroke-linecap:round;stroke-linejoin:round;stroke-miterlimit:10;" x1="51.246" y1="60.727" x2="54.352" y2="63.833"/>
</g>
<path style="fill:none;stroke:currentColor;stroke-width:1.7794;stroke-linecap:round;stroke-linejoin:round;stroke-miterlimit:10;" d="
	M72.364,65.421v1.85c0,2.303-1.47,4.17-3.284,4.17"/>
<path style="fill:none;stroke:currentColor;stroke-width:1.7794;stroke-linecap:round;stroke-linejoin:round;stroke-miterlimit:10;" d="
	M69.08,60.724c1.814,0,3.284,1.867,3.284,4.17v1.836"/>
<line style="fill:none;stroke:currentColor;stroke-width:1.7794;stroke-linecap:round;stroke-linejoin:round;stroke-miterlimit:10;" x1="51.246" y1="60.724" x2="68.456" y2="60.724"/>
<path style="fill:none;stroke:currentColor;stroke-width:1.779;stroke-linecap:round;stroke-linejoin:round;stroke-miterlimit:10;" d="
	M65.864,64.075v14.346c0,2.209-1.791,3-4,3h-15.5c-2.209,0-4-0.791-4-3v-22c0-2.209,1.791-4,4-4h15.5c2.209,0,4,1.791,4,4v1.422"/>
</svg>
