<?xml version="1.0" encoding="utf-8"?>
<!-- Generator: Adobe Illustrator 22.0.0, SVG Export Plug-In . SVG Version: 6.00 Build 0)  -->
<svg version="1.1" id="图层_1" xmlns="http://www.w3.org/2000/svg" xmlns:xlink="http://www.w3.org/1999/xlink" x="0px" y="0px"
	 viewBox="0 0 31 30" style="enable-background:new 0 0 31 30;" xml:space="preserve">
<style type="text/css">
	.st0{fill:#999999;}
	.st1{filter:url(#Adobe_OpacityMaskFilter);}
	.st2{fill:#FFFFFF;}
	.st3{mask:url(#mask-2_2_);}
</style>
<title>icon/搜索</title>
<desc>Created with Sketch.</desc>
<g id="icon_x2F_搜索">
	<g id="Stroke-1">
		<path class="st0" d="M11,21.9C5,21.9,0.1,17,0.1,11S5,0.1,11,0.1C17,0.1,21.9,5,21.9,11S17,21.9,11,21.9z M11,1.9
			C6,1.9,1.9,6,1.9,11c0,5,4.1,9.1,9.1,9.1c5,0,9.1-4.1,9.1-9.1C20.1,6,16,1.9,11,1.9z"/>
	</g>
	<g id="Group-5" transform="translate(19.000000, 18.000000)">
		<g id="Clip-4">
		</g>
		<defs>
			<filter id="Adobe_OpacityMaskFilter" filterUnits="userSpaceOnUse" x="0.3" y="0.9" width="11.1" height="11.1">
				<feColorMatrix  type="matrix" values="1 0 0 0 0  0 1 0 0 0  0 0 1 0 0  0 0 0 1 0"/>
			</filter>
		</defs>
		<mask maskUnits="userSpaceOnUse" x="0.3" y="0.9" width="11.1" height="11.1" id="mask-2_2_">
			<g class="st1">
				<polygon id="path-1_2_" class="st2" points="0.3,0.9 11.4,0.9 11.4,12 0.3,12 				"/>
			</g>
		</mask>
		<g id="Fill-3" class="st3">
			<path class="st0" d="M11.2,11.7L11.2,11.7c-0.4,0.4-1,0.4-1.4,0L0.6,2.6c-0.4-0.4-0.4-1,0-1.4l0,0c0.4-0.4,1-0.4,1.4,0l9.1,9.1
				C11.5,10.7,11.5,11.3,11.2,11.7"/>
		</g>
	</g>
</g>
</svg>
