<?xml version="1.0" encoding="utf-8"?>
<!-- Generator: Adobe Illustrator 22.0.0, SVG Export Plug-In . SVG Version: 6.00 Build 0)  -->
<svg version="1.1" id="图层_1" xmlns="http://www.w3.org/2000/svg" xmlns:xlink="http://www.w3.org/1999/xlink" x="0px" y="0px"
	 viewBox="0 0 32 32" style="enable-background:new 0 0 32 32;" xml:space="preserve">
<style type="text/css">
	.st0{fill:currentColor;}
</style>
<title>icon/notes/blue</title>
<desc>Created with Sketch.</desc>
<g>
	<g id="Stroke-1">
		<path class="st0" d="M26.9,14h-2.4c-0.5,0-0.9,0.4-0.9,0.9s0.4,0.9,0.9,0.9h2.4c0.5,0,0.9-0.4,0.9-0.9S27.4,14,26.9,14z"/>
	</g>
	<g id="Stroke-2">
		<path class="st0" d="M24.6,13.9c-0.4-2.3-2.1-4-4.1-4H10.4v1.8h10.1c1.1,0,2.1,1,2.3,2.5c0,0.3,0.1,0.5,0.1,0.8v5.9h1.8V15
			C24.7,14.6,24.6,14.3,24.6,13.9z"/>
	</g>
	<g id="Stroke-4">
		<path class="st0" d="M23.8,20c-0.5,0-0.9,0.4-0.9,0.9v5.9c0,1.8-1.1,3.3-2.4,3.3H4.2c-0.2,0-0.4,0-0.6-0.1
			c-1.1-0.3-1.8-1.7-1.8-3.2V15c0-1.8,1.1-3.3,2.4-3.3h6.2c0.5,0,0.9-0.4,0.9-0.9s-0.4-0.9-0.9-0.9H4.2C1.9,9.9,0,12.2,0,15v11.7
			C0,29,1.3,31,3.1,31.6c0.4,0.1,0.7,0.2,1.1,0.2h16.3c2.3,0,4.2-2.3,4.2-5.1v-5.9C24.7,20.4,24.3,20,23.8,20z"/>
	</g>
	<g id="Stroke-6">
		<path class="st0" d="M27.6,21.8c-0.5,0-0.9-0.4-0.9-0.9s0.4-0.9,0.9-0.9c1.3,0,2.4-1.5,2.4-3.3V5.1c0-1.8-1.1-3.3-2.4-3.3H11.3
			c-1.3,0-2.4,1.5-2.4,3.3c0,0.5-0.4,0.9-0.9,0.9S7.1,5.6,7.1,5.1C7.1,2.3,9,0,11.3,0h16.3c2.3,0,4.2,2.3,4.2,5.1v11.7
			C31.8,19.6,29.9,21.8,27.6,21.8z"/>
	</g>
	<g id="Stroke-8">
		<path class="st0" d="M19.8,17.8H5.6c-0.5,0-0.9-0.4-0.9-0.9c0-0.5,0.4-0.9,0.9-0.9h14.2c0.5,0,0.9,0.4,0.9,0.9
			C20.7,17.4,20.3,17.8,19.8,17.8z"/>
	</g>
	<g id="Stroke-10">
		<path class="st0" d="M19.8,25.8H5.6c-0.5,0-0.9-0.4-0.9-0.9s0.4-0.9,0.9-0.9h14.2c0.5,0,0.9,0.4,0.9,0.9S20.3,25.8,19.8,25.8z"/>
	</g>
	<g id="Stroke-12">
		<path class="st0" d="M26.9,7.8H12.7c-0.5,0-0.9-0.4-0.9-0.9S12.2,6,12.7,6h14.2c0.5,0,0.9,0.4,0.9,0.9S27.4,7.8,26.9,7.8z"/>
	</g>
</g>
</svg>
