<?xml version="1.0" encoding="utf-8"?>
<!-- Generator: Adobe Illustrator 22.0.0, SVG Export Plug-In . SVG Version: 6.00 Build 0)  -->
<svg version="1.1" id="图层_1" xmlns="http://www.w3.org/2000/svg" xmlns:xlink="http://www.w3.org/1999/xlink" x="0px" y="0px"
	 viewBox="0 0 28 32" style="enable-background:new 0 0 28 32;" xml:space="preserve">
<style type="text/css">
	.st0{fill:currentColor;}
</style>
<title>icon/trash/blue</title>
<desc>Created with Sketch.</desc>
<g id="icon_x2F_trash_x2F_blue">
	<g id="Group">
		<g id="Stroke-1">
			<path class="st0" d="M22,31.6H5.6c-2.2,0-4-2-4-4.5V8.3c0-0.4,0.4-0.8,0.8-0.8h22.9c0.4,0,0.8,0.4,0.8,0.8v18.9
				C26.1,29.6,24.3,31.6,22,31.6z M3.1,9.1v18c0,1.6,1.1,2.8,2.4,2.8H22c1.3,0,2.4-1.3,2.4-2.8v-18H3.1z"/>
		</g>
		<g id="Stroke-3">
			<path class="st0" d="M26.8,9.1h-26C0.4,9.1,0,8.7,0,8.3V7.9c0-2.3,1.7-4.1,3.9-4.1h19.9c1.9,0,3.5,1.4,3.8,3.4
				c0,0.2,0.1,0.5,0.1,0.7v0.4C27.6,8.7,27.2,9.1,26.8,9.1z M1.6,7.5H26c0,0,0,0,0-0.1c-0.2-1.2-1.1-2.1-2.2-2.1H3.9
				C2.7,5.3,1.8,6.3,1.6,7.5z"/>
		</g>
		<g id="Stroke-5">
			<path class="st0" d="M16.9,3.3c-0.4,0-0.8-0.4-0.8-0.8c0-0.5-0.3-0.9-0.7-0.9h-3.1c-0.4,0-0.7,0.4-0.7,0.9c0,0.4-0.4,0.8-0.8,0.8
				S9.9,2.9,9.9,2.5c0-1.4,1-2.5,2.3-2.5h3.1c1.3,0,2.3,1.1,2.3,2.5C17.7,2.9,17.3,3.3,16.9,3.3z"/>
		</g>
		<g id="Stroke-7">
			<path class="st0" d="M13.8,25.8c-0.4,0-0.8-0.4-0.8-0.8V13.3c0-0.4,0.4-0.8,0.8-0.8s0.8,0.4,0.8,0.8V25
				C14.6,25.4,14.2,25.8,13.8,25.8z"/>
		</g>
		<g id="Stroke-9">
			<path class="st0" d="M7.7,25.8c-0.4,0-0.8-0.4-0.8-0.8V13.3c0-0.4,0.4-0.8,0.8-0.8s0.8,0.4,0.8,0.8V25
				C8.5,25.4,8.1,25.8,7.7,25.8z"/>
		</g>
		<g id="Stroke-11">
			<path class="st0" d="M19.9,25.8c-0.4,0-0.8-0.4-0.8-0.8V13.3c0-0.4,0.4-0.8,0.8-0.8s0.8,0.4,0.8,0.8V25
				C20.7,25.4,20.4,25.8,19.9,25.8z"/>
		</g>
	</g>
</g>
</svg>
