<?xml version="1.0" encoding="utf-8"?>
<!-- Generator: Adobe Illustrator 22.0.0, SVG Export Plug-In . SVG Version: 6.00 Build 0)  -->
<svg version="1.1" id="图层_1" xmlns="http://www.w3.org/2000/svg" xmlns:xlink="http://www.w3.org/1999/xlink" x="0px" y="0px"
	 viewBox="0 0 48 48" style="enable-background:new 0 0 48 48;" xml:space="preserve">
<style type="text/css">
	.st0{fill:#E94436;}
	.st1{fill:#35A853;}
	.st2{fill:#4285F3;}
	.st3{fill:#FABB06;}
</style>
<g>
	<path class="st0" d="M2.5,13.4c0.8-1.9,2-3.5,3.3-5.1C11.2,2.2,18-0.5,26.1,0.1c5,0.4,9.4,2.3,13.3,5.5c0.3,0.3,0.4,0.4,0.1,0.8
		c-2.1,2-4.1,4-6.1,6.1c-0.4,0.4-0.6,0.5-1,0.1C24.9,7,14,10.2,10.8,18.9c-0.1,0.2-0.2,0.4-0.3,0.6C7.8,17.5,5.1,15.4,2.5,13.4z"/>
	<path class="st1" d="M10.5,28.5c1.1,3.1,2.9,5.6,5.6,7.3c5,3.2,10.2,3.2,15.5,0.6c0.2-0.1,0.3-0.2,0.5-0.3c2.5,2,5,4,7.6,5.9
		c-2.7,2.7-6,4.4-9.7,5.3c-8.7,2-16.3-0.1-22.8-6.1c-2-1.8-3.6-4-4.7-6.5C5.1,32.5,7.8,30.5,10.5,28.5z"/>
	<path class="st2" d="M39.6,42c-2.6-1.9-5.1-3.9-7.6-5.9c2.3-1.6,3.9-3.6,4.6-6.3c0.2-0.8,0.2-0.8-0.6-0.8c-3.8,0-7.5,0-11.3,0
		c-0.7,0-0.8-0.2-0.8-0.8c0-2.6,0-5.2,0-7.9c0-0.5,0.1-0.7,0.6-0.7c7.1,0,14.1,0,21.1,0c0.4,0,0.6,0.1,0.7,0.6
		c0.8,4.1,0.4,8.2-0.8,12.1c-1.1,3.5-2.9,6.6-5.5,9.2C40,41.7,39.8,41.8,39.6,42z"/>
	<path class="st3" d="M10.5,28.5c-2.7,2-5.4,4.1-8,6.1c-1.1-2.1-1.8-4.5-2.2-6.8c-0.8-4.9-0.1-9.5,2-14c0.1-0.1,0.1-0.2,0.2-0.3
		c2.7,2,5.4,4.1,8,6.1C9.6,22.5,9.6,25.5,10.5,28.5z"/>
</g>
</svg>
