<?xml version="1.0" encoding="UTF-8"?>
<svg width="16px" height="16px" viewBox="0 0 16 16" version="1.1" xmlns="http://www.w3.org/2000/svg" xmlns:xlink="http://www.w3.org/1999/xlink">
    <!-- Generator: Sketch 50.2 (55047) - http://www.bohemiancoding.com/sketch -->
    <title></title>
    <desc>Created with Sketch.</desc>
    <defs>
        <polygon id="path-1" points="0.0001 0 16 0 16 15.9999667 0.0001 15.9999667"></polygon>
    </defs>
    <g stroke="none" stroke-width="1" fill="none" fill-rule="evenodd">
        <g transform="translate(-652.000000, -692.000000)">
            <g transform="translate(652.000000, 690.000000)">
                <g>
                    <g transform="translate(0.000000, 2.000000)">
                        <mask id="mask-2" fill="white">
                            <use xlink:href="#path-1"></use>
                        </mask>
                        <g id="Clip-2"></g>
                        <path d="M8.55176667,12.4123 C8.55176667,12.7176333 8.30676667,12.9653 8.0001,12.9653 C7.6951,12.9653 7.4481,12.7179667 7.4481,12.4123 L7.4481,6.89796667 C7.4481,6.59263333 7.6931,6.34463333 8.0001,6.34463333 C8.30476667,6.34463333 8.55176667,6.5923 8.55176667,6.89796667 L8.55176667,12.4123 Z M8.0001,3.5803 C8.4571,3.5803 8.8271,3.95096667 8.8271,4.40763333 C8.8271,4.86463333 8.4571,5.2353 8.0001,5.2353 C7.5431,5.2353 7.17276667,4.86463333 7.17276667,4.40796667 C7.17276667,3.9513 7.5431,3.5803 8.0001,3.5803 Z M8.0001,-3.33333333e-05 C3.58176667,-3.33333333e-05 0.0001,3.58163333 0.0001,7.99996667 C0.0001,12.4183 3.58176667,15.9999667 8.0001,15.9999667 C12.4184333,15.9999667 16.0001,12.4183 16.0001,7.99996667 C16.0001,3.58163333 12.4184333,-3.33333333e-05 8.0001,-3.33333333e-05 Z" id="Fill-1" fill="#D81E06" fill-rule="evenodd" mask="url(#mask-2)"></path>
                    </g>
                </g>
            </g>
        </g>
    </g>
</svg>