<?xml version="1.0" encoding="UTF-8"?>
<svg width="26px" height="23px" viewBox="0 0 26 23" version="1.1" xmlns="http://www.w3.org/2000/svg" xmlns:xlink="http://www.w3.org/1999/xlink">
    <!-- Generator: Sketch 50.2 (55047) - http://www.bohemiancoding.com/sketch -->
    <title></title>
    <desc>Created with Sketch.</desc>
    <defs>
        <polygon id="path-1" points="4.73885455 21.1276214 17.3449152 21.1276214 17.3449152 21.8266714 4.73885455 21.8266714"></polygon>
    </defs>
    <g id="Symbols" stroke="none" stroke-width="1" fill="none" fill-rule="evenodd">
        <g transform="translate(-71.000000, -61.000000)">
            <g id="icon/back-to-video" transform="translate(71.000000, 61.000000)">
                <path d="M20.3979455,9.60127143 L20.3979455,13.2705571 C20.3979455,15.0062 18.9868545,16.4134143 17.2464303,16.4134143 L3.85249091,16.4134143 C2.11206667,16.4134143 0.700975758,15.0062 0.700975758,13.2705571 L0.700975758,3.84198571 C0.700975758,2.10634286 2.11206667,0.699128571 3.85249091,0.699128571 L17.2464303,0.699128571 C18.9868545,0.699128571 20.3979455,2.10634286 20.3979455,3.84198571 L20.3979455,4.93334286" id="Stroke-1" stroke="#FF6E03" stroke-width="1.779" stroke-linecap="round" stroke-linejoin="round"></path>
                <path d="M8.38893939,7.22495714 L10.835303,4.78531429" id="Stroke-3" stroke="#FF6E03" stroke-width="1.779" stroke-linecap="round" stroke-linejoin="round"></path>
                <path d="M8.38893939,7.22495714 L10.835303,9.66538571" id="Stroke-5" stroke="#FF6E03" stroke-width="1.779" stroke-linecap="round" stroke-linejoin="round"></path>
                <path d="M25.0267333,10.1276214 L25.0267333,12.3669071 C25.0267333,14.1764071 23.8685515,15.6433357 22.4393394,15.6433357" id="Stroke-7" stroke="#FF6E03" stroke-width="1.779" stroke-linecap="round" stroke-linejoin="round"></path>
                <path d="M22.4391818,7.2226 C23.8683939,7.2226 25.0265758,8.68952857 25.0265758,10.4990286" id="Stroke-9" stroke="#FF6E03" stroke-width="1.779" stroke-linecap="round" stroke-linejoin="round"></path>
                <path d="M8.38893939,7.2226 L22.7362121,7.2226" id="Stroke-11" stroke="#FF6E03" stroke-width="1.779" stroke-linecap="round" stroke-linejoin="round"></path>
                <mask id="mask-2" fill="white">
                    <use xlink:href="#path-1"></use>
                </mask>
                <g id="Clip-14"></g>
                <path d="M4.73885455,21.1276214 L17.3449152,21.1276214" id="Stroke-13" stroke="#FF6E03" stroke-width="1.779" stroke-linecap="round" stroke-linejoin="round"></path>
                <path d="M1.3903697,14.0561929 L20.2994606,14.0561929" id="Stroke-16" stroke="#FF6E03" stroke-width="1.779" stroke-linecap="round" stroke-linejoin="round"></path>
                <path d="M9.26915758,16.4133357 L9.26915758,20.3419071" id="Stroke-18" stroke="#FF6E03" stroke-width="1.779" stroke-linecap="round" stroke-linejoin="round"></path>
                <path d="M12.4206727,16.4133357 L12.4206727,20.3419071" id="Stroke-20" stroke="#FF6E03" stroke-width="1.779" stroke-linecap="round" stroke-linejoin="round"></path>
            </g>
        </g>
    </g>
</svg>