<?xml version="1.0" encoding="UTF-8"?>
<svg width="48px" height="32px" viewBox="0 0 48 32" version="1.1" xmlns="http://www.w3.org/2000/svg" xmlns:xlink="http://www.w3.org/1999/xlink">
    <!-- Generator: Sketch 50.2 (55047) - http://www.bohemiancoding.com/sketch -->
    <title></title>
    <desc>Created with Sketch.</desc>
    <defs>
        <polygon id="path-1" points="0 0.8 47.99855 0.8 47.99855 31.9998 0 31.9998"></polygon>
    </defs>
    <g stroke="none" stroke-width="1" fill="none" fill-rule="evenodd">
        <g transform="translate(-1139.000000, -549.000000)">
            <g transform="translate(1139.000000, 549.000000)">
                <path d="M23.9988,20.4004 C21.3518,20.4004 19.1988,18.2474 19.1988,15.6004 C19.1988,12.9524 21.3518,10.7994 23.9988,10.7994 C26.6458,10.7994 28.7988,12.9524 28.7988,15.6004 C28.7988,18.2474 26.6458,20.4004 23.9988,20.4004 M23.9988,8.4004 C20.0218,8.4014 16.7998,11.6264 16.8018,15.6034 C16.8038,19.5774 20.0248,22.7984 23.9988,22.7994 C27.9758,22.7994 31.1988,19.5764 31.1988,15.6004 C31.1988,11.6234 27.9758,8.4004 23.9988,8.4004" id="Fill-1" fill-opacity="0.5" fill="#999999"></path>
                <g id="Group-5" stroke-width="1" transform="translate(0.000000, -0.800000)">
                    <mask id="mask-2" fill="white">
                        <use xlink:href="#path-1"></use>
                    </mask>
                    <g id="Clip-4"></g>
                    <path d="M23.9988,29.5998 C12.9658,29.5998 3.7098,18.0138 2.4768,16.3998 C3.7148,14.7808 12.9688,3.1998 23.9988,3.1998 C35.0228,3.1998 44.2708,14.7688 45.5208,16.3998 C44.2798,18.0198 35.0278,29.5998 23.9988,29.5998 M47.6018,15.1748 C47.1748,14.5878 37.0058,0.7998 23.9988,0.7998 C10.9938,0.7998 0.8218,14.5878 0.3958,15.1748 C-0.1322,15.9058 -0.1322,16.8928 0.3958,17.6238 C0.8218,18.2118 10.9938,31.9998 23.9988,31.9998 C37.0058,31.9998 47.1748,18.2118 47.6018,17.6248 C48.1308,16.8938 48.1308,15.9058 47.6018,15.1748" id="Fill-3" fill-opacity="0.5" fill="#999999" mask="url(#mask-2)"></path>
                </g>
            </g>
        </g>
    </g>
</svg>