<?xml version="1.0" encoding="UTF-8"?>
<svg width="24px" height="18px" viewBox="0 0 24 18" version="1.1" xmlns="http://www.w3.org/2000/svg" xmlns:xlink="http://www.w3.org/1999/xlink">
    <!-- Generator: Sketch 50.2 (55047) - http://www.bohemiancoding.com/sketch -->
    <title></title>
    <desc>Created with Sketch.</desc>
    <defs>
        <polygon id="path-1" points="0 0.00015 23.999275 0.00015 23.999275 17.99915 0 17.99915"></polygon>
    </defs>
    <g stroke="none" stroke-width="1" fill="none" fill-rule="evenodd">
        <g transform="translate(-801.000000, -576.000000)">
            <g transform="translate(801.000000, 576.000000)">
                <mask id="mask-2" fill="white">
                    <use xlink:href="#path-1"></use>
                </mask>
                <g id="Clip-2"></g>
                <path d="M11.9994,15.5997 C10.3889,15.5997 8.8594,15.0992 7.4789,14.3807 L9.9224,11.9367 C10.5289,12.3687 11.2549,12.6002 11.9994,12.5997 C13.9879,12.5997 15.5994,10.9877 15.5994,8.9997 C15.5999,8.2552 15.3679,7.5292 14.9364,6.9227 L17.6144,4.2447 C20.3944,6.0132 22.3679,8.4867 22.7604,8.9997 C22.1399,9.8097 17.5139,15.5997 11.9994,15.5997 M9.5994,8.9997 C9.5994,7.6762 10.6759,6.5997 11.9994,6.5997 C12.4409,6.5997 12.8489,6.7282 13.2049,6.9372 L9.9369,10.2052 C9.7184,9.8407 9.6019,9.4247 9.5994,8.9997 M14.3994,8.9997 C14.3994,10.3232 13.3229,11.4002 11.9994,11.4002 C11.5749,11.3977 11.1589,11.2812 10.7954,11.0632 L14.0629,7.7957 C14.2714,8.1507 14.3994,8.5592 14.3994,8.9997 M1.2384,8.9997 C1.8574,8.1902 6.4844,2.3997 11.9994,2.3997 C13.6104,2.3997 15.1399,2.9007 16.5209,3.6202 L14.0779,6.0632 C13.4709,5.6312 12.7444,5.3997 11.9994,5.3997 C10.0109,5.3997 8.3994,7.0117 8.3994,8.9997 C8.3994,9.7747 8.6464,10.4902 9.0629,11.0782 L6.3849,13.7557 C3.6019,11.9852 1.6264,9.5072 1.2384,8.9997 M23.8009,8.3872 C23.6664,8.2032 21.6114,5.4167 18.4899,3.3682 L20.8134,1.0452 C21.0564,0.8007 21.0614,0.4117 20.8254,0.1742 C20.5819,-0.0628 20.1929,-0.0573 19.9559,0.1862 C19.9554,0.1862 19.9549,0.1867 19.9549,0.1872 L17.4189,2.7232 C15.8059,1.8332 13.9684,1.1997 11.9994,1.1997 C5.4969,1.1997 0.4109,8.0937 0.1979,8.3872 C-0.0661,8.7527 -0.0661,9.2462 0.1979,9.6117 C0.3319,9.7967 2.3879,12.5832 5.5099,14.6312 L3.1869,16.9547 C2.9424,17.1972 2.9369,17.5892 3.1739,17.8257 C3.4114,18.0617 3.8009,18.0562 4.0444,17.8137 L6.5819,15.2767 C8.1944,16.1662 10.0314,16.7997 11.9994,16.7997 C18.5029,16.7997 23.5874,9.9057 23.8009,9.6122 C24.0654,9.2467 24.0654,8.7527 23.8009,8.3872" id="Fill-1" fill-opacity="0.5" fill="#999999" fill-rule="evenodd" mask="url(#mask-2)"></path>
            </g>
        </g>
    </g>
</svg>