<?xml version="1.0" encoding="UTF-8"?>
<svg width="26px" height="32px" viewBox="0 0 26 32" version="1.1" xmlns="http://www.w3.org/2000/svg" xmlns:xlink="http://www.w3.org/1999/xlink">
    <!-- Generator: Sketch 50.2 (55047) - http://www.bohemiancoding.com/sketch -->
    <title></title>
    <desc>Created with Sketch.</desc>
    <defs></defs>
    <g stroke="none" stroke-width="1" fill="none" fill-rule="evenodd" stroke-linecap="round" stroke-linejoin="round">
        <path d="M25,4.158 L25,31 L14.034,24.508 C13.396,24.13 12.604,24.13 11.966,24.508 L1,31 L1,4.158 C1,2.421 2.8,1 5,1 L21,1 C22.85,1 24.43,2.011 24.87,3.368 C24.9,3.447 24.92,3.534 24.94,3.613 C24.98,3.787 25,3.968 25,4.158 Z" id="Stroke-1" stroke="#FF6E03" stroke-width="1.777" fill="#FF6E03"></path>
        <path d="M19.3710764,16.806 C19.3930764,16.94 19.3960764,17.073 19.3800764,17.203 C19.3630764,17.332 19.2550764,17.399 19.0570764,17.399 C18.9390764,17.399 18.8500764,17.365 18.7860764,17.296 C18.7230764,17.23 18.6730764,17.111 18.6380764,16.94 C18.2070764,14.723 17.8810764,13.043 17.6590764,11.904 C17.4370764,10.764 17.3140764,10.135 17.2920764,10.019 C17.2680764,9.902 17.2450764,9.787 17.2230764,9.675 C17.2000764,9.564 17.1760764,9.457 17.1540764,9.359 C17.1190764,9.215 17.0780764,9.087 17.0310764,8.976 C16.9840764,8.864 16.9360764,8.783 16.8910764,8.733 C16.8440764,8.684 16.7940764,8.674 16.7430764,8.705 C16.6890764,8.738 16.6400764,8.825 16.5940764,8.968 L13.5890764,16.966 C13.5180764,17.138 13.4580764,17.251 13.4050764,17.311 C13.3510764,17.369 13.2850764,17.399 13.2040764,17.399 C13.1340764,17.399 13.0730764,17.373 13.0190764,17.325 C12.9680764,17.275 12.9070764,17.156 12.8360764,16.967 C12.3110764,15.613 11.7960764,14.282 11.2900764,12.976 C10.7840764,11.669 10.2850764,10.338 9.79507637,8.983 C9.71307637,8.768 9.62907637,8.66 9.54207637,8.66 C9.45507637,8.66 9.38807637,8.768 9.34107637,8.983 L7.76707637,16.941 C7.74507637,17.085 7.70707637,17.197 7.65407637,17.279 C7.60107637,17.359 7.48807637,17.4 7.31207637,17.4 C7.05707637,17.4 6.95807637,17.251 7.01607637,16.954 L8.65907637,8.701 C8.74007637,8.234 9.01907637,8 9.49807637,8 C9.97507637,8 10.2900764,8.207 10.4420764,8.62 L13.2380764,16.067 L15.9640764,8.62 C16.1150764,8.207 16.4250764,8 16.8910764,8 C17.3800764,8 17.6650764,8.234 17.7470764,8.701 L19.3710764,16.806 Z" id="Stroke-3" stroke="#FFFFFF" stroke-width="0.95"></path>
    </g>
</svg>